<?xml version="1.0" encoding="utf-8"?>
<!-- Generator: Adobe Illustrator 22.0.1, SVG Export Plug-In . SVG Version: 6.00 Build 0)  -->
<svg version="1.1" id="Layer_1" xmlns="http://www.w3.org/2000/svg" xmlns:xlink="http://www.w3.org/1999/xlink" x="0px" y="0px"
	 viewBox="0 0 288.8 271.7" style="enable-background:new 0 0 288.8 271.7;" xml:space="preserve">
<style type="text/css">
	.st0{fill:#175052;}
	.st1{fill:#F38C1F;}
</style>
<g id="camera">
	<path class="st0" d="M17.7,126.9c0,0,0-20.5,8.1-35.7c4.3-7.9,10.6-14.2,20.1-15.8c28.2-4.7,37.6,0,37.6,0s-4.7-21.1,0-23.4
		s7.1-9.3,16.4-9.3s91.4-2.4,91.4-2.4s18.7,7.1,21.1,14c2.4,7.1,4.7,16.4,4.7,16.4s42.2,2.4,49.1,11.8c7.1,9.3,4.7,9.3,7.1,37.6
		s2.4,103.2,2.4,103.2s2.4,23.4-28.2,25.8c-30.5,2.4-203.9,2.4-203.9,2.4s-23.4-11.8-25.8-32.9"/>
	<circle class="st1" cx="148.9" cy="173.8" r="54"/>
	<circle class="st0" cx="147.8" cy="175" r="43.5"/>
</g>
</svg>
