<?xml version="1.0" encoding="utf-8"?>
<!-- Generator: Adobe Illustrator 22.0.1, SVG Export Plug-In . SVG Version: 6.00 Build 0)  -->
<svg version="1.1" id="Layer_1" xmlns="http://www.w3.org/2000/svg" xmlns:xlink="http://www.w3.org/1999/xlink" x="0px" y="0px"
	 viewBox="0 0 790.8 513.3" style="enable-background:new 0 0 790.8 513.3;" xml:space="preserve">
<style type="text/css">
	.st0{fill:#FEA002;}
	.st1{fill:#FEC808;}
	.st2{font-family:'PoplarStd';}
	.st3{font-size:32.1275px;}
	.st4{font-size:16.0637px;}
</style>
<g id="usage_chart">
	<rect x="139.1" y="418.8" class="st0" width="486.4" height="7.1"/>
	<rect x="174.8" y="350.1" class="st1" width="78.5" height="69.6"/>
	<rect x="294.4" y="304.6" class="st1" width="78.5" height="116"/>
	<rect x="399.7" y="219.8" class="st1" width="78.5" height="200.8"/>
	<rect x="518.4" y="68.9" class="st1" width="78.5" height="348.9"/>
	<text transform="matrix(1 0 0 1 187.2747 343.7988)" class="st2 st3">1998</text>
	<text transform="matrix(1 0 0 1 410.3821 211.7197)" class="st2 st3">2012</text>
	<text transform="matrix(1 0 0 1 529.9681 61.791)" class="st2 st3">2018</text>
	<text transform="matrix(1 0 0 1 305.0755 297.3925)" class="st2 st3">2008</text>
	<text transform="matrix(1 0 0 1 160.5013 459.8154)" class="st2 st3">numbers of the smart phone usage these years</text>
	<text transform="matrix(1 0 0 1 608.9014 459.8154)" class="st2 st4">(billilion)</text>
	<text transform="matrix(1 0 0 1 203.3382 397.3447)" class="st2 st3">1.1</text>
	<text transform="matrix(1 0 0 1 315.7845 379.4961)" class="st2 st3">3.5</text>
	<text transform="matrix(1 0 0 1 422.8763 340.2295)" class="st2 st3">8.7</text>
	<text transform="matrix(1 0 0 1 537.1068 258.1259)" class="st2 st3">15.8</text>
</g>
</svg>
