<?xml version="1.0" encoding="utf-8"?>
<!-- Generator: Adobe Illustrator 22.0.1, SVG Export Plug-In . SVG Version: 6.00 Build 0)  -->
<svg version="1.1" id="Layer_1" xmlns="http://www.w3.org/2000/svg" xmlns:xlink="http://www.w3.org/1999/xlink" x="0px" y="0px"
	 viewBox="0 0 790.8 767.5" style="enable-background:new 0 0 790.8 767.5;" xml:space="preserve">
<style type="text/css">
	.st0{fill:#FFFFFF;}
	.st1{fill:#9E9E9E;}
	.st2{fill:#FFCBAA;}
	.st3{fill:#AD8A74;}
	.st4{fill:#175052;}
</style>
<g id="hand">
	<polygon class="st0" points="88.1,728.1 172.8,511.1 191,517.4 340.4,569.3 292.8,729.9 	"/>
	<polygon class="st1" points="320.1,546.4 191.3,517.3 318.8,561.8 	"/>
	<path class="st2" d="M292.8,205c0,0,14.1-48.5,16.8-65.3s7.1-38.8,17.6-42.3c10.6-3.5,19.4-3.5,28.2,3.5c8.8,7.1,11.5,15,11.5,15
		v69.7l-13.2,75L366.1,445l1.8,32.6c0,0,1.8,11.5,7.1,13.2l-35.3,4.4l-19.4,51.2l-128.8-29.1l25.1-65.7l22.1-142L292.8,205z"/>
	<polygon class="st3" points="367.3,255.7 365.6,444.5 353.2,260.1 	"/>
	<polygon class="st3" points="611.7,134.8 616.1,196.6 604.7,203.6 602,140.1 	"/>
	<path class="st2" d="M619.7,131.3c0,0,17.6-1.8,25.6,3.5s12.4,22.9,10.6,29.1c-1.8,6.2-6.2,15.9-13.2,20.3
		c-7.1,4.4-27.3,13.2-27.3,13.2l-4.4-61.8L619.7,131.3z"/>
	<path class="st2" d="M594.9,274.2c0,0,15-6.2,25.6,0.9s15,14.1,15.9,27.3c0.9,13.2-0.9,26.5-11.5,32.6c-10.6,6.2-10.6,6.2-10.6,6.2
		s15.9,0.9,19.4,13.2c3.5,12.4,5.3,28.2,0.9,34.4c-4.4,6.2-20.3,16.8-20.3,15s18.5,5.3,21.2,22.1c2.6,16.8,1.8,30.9-10.6,36.2
		c-12.4,5.3-23.8,6.2-30.9-1.8c-7.1-7.9-15-14.1-12.4-27.3c2.6-13.2,11.5-24.7,11.5-24.7l6.2-3.5c0,0-7.1,0.9-10.6-8.8
		c-3.5-9.7-11.5-22.9-7.9-31.8c3.5-8.8,12.4-20.3,15.9-21.2c3.5-0.9-8.8-8.8-12.4-19.4s3.5-35.3,3.5-35.3L594.9,274.2z"/>
	<path class="st4" d="M467.9,86.3l120.9-0.9c0,0,8.8-0.9,14.1,8.8c1.7,3,2.7,21.7,3.4,45.9c1.5,53.2,1,133.2,1,133.2
		s-7.1-0.9-12.4,6.2c-5.3,7.1-5.3,7.1-5.3,7.1l1.8-169.4H385.9L385,442.7h198.5c0,0,2.6,11.5,12.4,15.9c9.7,4.4,9.7,4.4,9.7,4.4
		s7.1,21.2-8.8,27.3c-15.9,6.2-209.1,2.6-209.1,2.6s-20.3,4.4-20.3-25.6s-0.9-352-0.9-352s0-27.3,18.5-29.1
		C403.5,84.5,467.9,86.3,467.9,86.3z"/>
</g>
</svg>
