<?xml version="1.0" encoding="utf-8"?>
<!-- Generator: Adobe Illustrator 22.0.1, SVG Export Plug-In . SVG Version: 6.00 Build 0)  -->
<svg version="1.1" id="Layer_1" xmlns="http://www.w3.org/2000/svg" xmlns:xlink="http://www.w3.org/1999/xlink" x="0px" y="0px"
	 viewBox="0 0 288.8 271.7" style="enable-background:new 0 0 288.8 271.7;" xml:space="preserve">
<style type="text/css">
	.st0{fill:#175052;}
</style>
<path id="music" class="st0" d="M47.5,187.3c0,0,9.7-5.8,21.3-5.8s21.3,0,21.3,0L94,69.2c0,0,13.6-11.6,29-11.6
	s110.4-21.3,110.4-21.3s13.6,1.9,15.5,11.6c1.9,9.7,1.9,149.1,1.9,149.1s-21.3,40.7-50.4,36.8s-71.7-21.3-48.4-50.4
	s36.8-34.9,48.4-32.9c11.6,1.9,17.4,3.9,17.4,3.9l3.9-85.2L125,92.4v131.7c0,0-11.6,31-36.8,34.9c-25.2,3.9-52.3-3.9-56.2-19.4
	s-3.9-36.8,5.8-44.5S47.5,187.3,47.5,187.3z"/>
</svg>
