<?xml version="1.0" encoding="utf-8"?>
<!-- Generator: Adobe Illustrator 22.0.1, SVG Export Plug-In . SVG Version: 6.00 Build 0)  -->
<svg version="1.1" id="Layer_1" xmlns="http://www.w3.org/2000/svg" xmlns:xlink="http://www.w3.org/1999/xlink" x="0px" y="0px"
	 viewBox="0 0 288.8 271.7" style="enable-background:new 0 0 288.8 271.7;" xml:space="preserve">
<style type="text/css">
	.st0{fill:#175052;}
</style>
<g id="wifi">
	<circle class="st0" cx="151.4" cy="216.4" r="27.5"/>
	<path class="st0" d="M95.2,156.4l19.1,17.3c0,0,13.3-13.3,30.7-15.3c17.3-2,26.9,0,28.7,3.8c2,3.8,9.6,11.5,9.6,11.5l17.3-17.3
		c0,0-23.1-30.7-49.8-26.9c-26.9,3.8-36.4,7.7-44,13.3C99,148.6,95.2,156.4,95.2,156.4z"/>
	<path class="st0" d="M58.8,120l17.3,17.3c0,0,28.7-23.1,49.8-24.9c21.1-2,36.4-5.8,53.7,2s34.4,23.1,34.4,23.1l21.1-17.3
		c0,0-40.2-34.4-69.1-36.4c-28.7-2-44-2-57.5,3.8C95.1,93.3,58.8,120,58.8,120z"/>
	<path class="st0" d="M22.4,85.5l21.1,17.3c0,0,44-42.2,78.6-42.2c34.4,0,63.3-2,86.2,11.5c23.1,13.3,42.2,32.6,42.2,32.6l19.1-21.1
		c0,0-46-44-82.4-46c-36.4-2-70.9-5.8-99.7,7.7C58.8,58.7,22.4,85.5,22.4,85.5z"/>
</g>
</svg>
